<svg width="30" height="32" viewBox="0 0 40 42" fill="none" xmlns="http://www.w3.org/2000/svg">
<path fill-rule="evenodd" clip-rule="evenodd" d="M19.728 0.838786C26.6037 0.838786 32.2031 5.65826 32.2031 11.5823L32.2029 14.7776C36.3829 16.0297 39.3898 19.4548 39.3898 23.4745V32.167C39.3898 37.2438 34.5933 41.3722 28.6949 41.3722H10.7028C4.80429 41.3722 0.0078125 37.2438 0.0078125 32.167V23.4745C0.0078125 19.4555 3.01361 16.031 7.19243 14.7783L7.19406 11.5823C7.20819 8.66384 8.51974 5.97037 10.8862 3.95178C13.255 1.93117 16.382 0.761772 19.728 0.838786ZM28.6949 17.3093H10.7028C6.75162 17.3093 3.53983 20.0737 3.53983 23.4745V32.167C3.53983 35.5678 6.75162 38.3322 10.7028 38.3322H28.6949C32.6437 38.3322 35.8578 35.5678 35.8578 32.167V23.4745C35.8578 20.0737 32.6437 17.3093 28.6949 17.3093ZM19.6984 24.0497C20.6732 24.0497 21.4644 24.7306 21.4644 25.5697V30.071C21.4644 30.91 20.6732 31.591 19.6984 31.591C18.7235 31.591 17.9323 30.91 17.9323 30.071V25.5697C17.9323 24.7306 18.7235 24.0497 19.6984 24.0497ZM19.721 3.87882H19.6833C17.298 3.87882 15.0634 4.66923 13.3751 6.11021C11.675 7.55727 10.7355 9.4887 10.7261 11.5478L10.724 14.2681H28.669L28.6711 11.5823C28.6711 7.33433 24.6564 3.87882 19.721 3.87882Z" fill="black"/>
</svg>
