<svg width="30" height="32" viewBox="0 0 39 42" fill="none" xmlns="http://www.w3.org/2000/svg">
<path fill-rule="evenodd" clip-rule="evenodd" d="M38.2412 33.8802C38.2412 40.5963 27.5405 41.3727 19.4936 41.3727L18.9178 41.3723C13.7909 41.3616 0.741211 41.083 0.741211 33.8395C0.741211 27.2604 11.0119 26.3811 18.9976 26.348L20.0694 26.3474C25.1959 26.3581 38.2412 26.6367 38.2412 33.8802ZM19.4936 29.4035C9.40599 29.4035 4.29235 30.895 4.29235 33.8395C4.29235 36.8104 9.40599 38.3162 19.4936 38.3162C29.5788 38.3162 34.6901 36.8246 34.6901 33.8802C34.6901 30.9093 29.5788 29.4035 19.4936 29.4035ZM19.4936 0.883545C26.4254 0.883545 32.0623 5.73726 32.0623 11.7035C32.0623 17.6698 26.4254 22.5215 19.4936 22.5215H19.4178C12.5002 22.5031 6.89652 17.6474 6.92012 11.6974C6.92012 5.73726 12.5594 0.883545 19.4936 0.883545ZM19.4936 3.79333C14.4249 3.79333 10.3008 7.3409 10.3008 11.7035C10.2843 16.0519 14.3776 19.5974 19.4249 19.6137L19.4936 21.0686V19.6137C24.5599 19.6137 28.6816 16.0641 28.6816 11.7035C28.6816 7.3409 24.5599 3.79333 19.4936 3.79333Z" fill="black"/>
</svg>
