<svg width="140" height="40" viewBox="0 0 164 66" fill="none" xmlns="http://www.w3.org/2000/svg">
<g filter="url(#filter0_bd_162_100)">
<path d="M21.68 20.856L17.968 23H4.88V0.599998H17.968L21.68 2.744V20.856ZM8.08 3.48V20.12H18.48V3.48H8.08ZM27.4425 23V0.599998H30.6425V23H27.4425ZM54.1393 0.599998L46.1393 23H42.1713L34.1713 0.599998H37.4033L44.1233 19.704H44.1873L50.9073 0.599998H54.1393ZM57.6613 23V0.599998H60.8613V23H57.6613ZM65.99 3.48V0.599998H80.55V2.52L69.51 20.056V20.12H80.55V23H65.35V21.08L76.39 3.544V3.48H65.99ZM85.3488 23V0.599998H88.5488V23H85.3488ZM104.046 0.599998L112.046 23H108.91L107.022 17.688H97.1015L95.2135 23H92.0775L100.078 0.599998H104.046ZM102.03 3.768L98.1255 14.808H105.998L102.094 3.768H102.03ZM133.608 0.599998L141.608 23H138.472L136.584 17.688H126.664L124.776 23H121.64L129.64 0.599998H133.608ZM131.592 3.768L127.688 14.808H135.56L131.656 3.768H131.592ZM145.13 7.32V4.088L151.21 0.599998H153.77V20.12H159.21V23H145.13V20.12H150.57V4.184L145.13 7.32ZM50.034 57H46.338L42.738 50.664H40.65V57H37.29V40.2H46.386L49.17 41.808V49.056L46.386 50.664L50.034 57ZM40.65 43.08V47.784H45.81V43.08H40.65ZM62.9709 40.2H66.3309V55.512L63.5469 57.12H56.0349L53.2509 55.512V40.2H56.6109V54H62.9709V40.2ZM73.7672 46.128V57H70.4072V40.2H73.5512L80.7992 51.072H80.8472V40.2H84.2072V57H81.0632L73.8152 46.128H73.7672ZM101.37 55.392L98.586 57H88.29V40.2H98.586L101.37 41.808V55.392ZM91.65 43.08V54.12H98.01V43.08H91.65ZM113.222 40.2L119.222 57H115.91L114.638 53.376H108.35L107.078 57H103.766L109.766 40.2H113.222ZM111.47 44.424L109.358 50.496H113.606L111.518 44.424H111.47ZM131.213 54.12H139.133V57H127.853V49.104L130.637 47.496H135.773V43.08H131.213V45.24H127.853V41.808L130.637 40.2H136.349L139.133 41.808V48.768L136.349 50.376H131.213V54.12Z" fill="white"/>
</g>
<defs>
<filter id="filter0_bd_162_100" x="-15.1201" y="-19.3999" width="194.33" height="96.52" filterUnits="userSpaceOnUse" color-interpolation-filters="sRGB">
<feFlood flood-opacity="0" result="BackgroundImageFix"/>
<feGaussianBlur in="BackgroundImageFix" stdDeviation="10"/>
<feComposite in2="SourceAlpha" operator="in" result="effect1_backgroundBlur_162_100"/>
<feColorMatrix in="SourceAlpha" type="matrix" values="0 0 0 0 0 0 0 0 0 0 0 0 0 0 0 0 0 0 127 0" result="hardAlpha"/>
<feOffset dy="4"/>
<feGaussianBlur stdDeviation="2"/>
<feColorMatrix type="matrix" values="0 0 0 0 0 0 0 0 0 0 0 0 0 0 0 0 0 0 0.25 0"/>
<feBlend mode="normal" in2="effect1_backgroundBlur_162_100" result="effect2_dropShadow_162_100"/>
<feBlend mode="normal" in="SourceGraphic" in2="effect2_dropShadow_162_100" result="shape"/>
</filter>
</defs>
</svg>
